<?plantuml 1.2026.1?><svg xmlns="http://www.w3.org/2000/svg" xmlns:xlink="http://www.w3.org/1999/xlink" contentStyleType="text/css" data-diagram-type="ACTIVITY" height="1593px" preserveAspectRatio="none" style="width:1141px;height:1593px;background:#FFFFFF;" version="1.1" viewBox="0 0 1141 1593" width="1141px" zoomAndPan="magnify"><title>M70 &lt;-&gt; M70 Canary Activity - 2026-05-26</title><defs/><g><g class="title" data-source-line="1"><text fill="#000000" font-family="sans-serif" font-size="14" font-weight="bold" lengthAdjust="spacing" textLength="273.1367" x="432.8928" y="33.1318">M70 &lt;-&gt; M70 Canary Activity - 2026-05-26</text></g><rect fill="none" height="20.6982" style="stroke:none;stroke-width:1;" width="1108.9224" x="15" y="49.4131"/><ellipse cx="136.7207" cy="85.1113" fill="#222222" rx="10" ry="10" style="stroke:#222222;stroke-width:1;"/><rect fill="#F7F7F7" height="61.3965" rx="12.5" ry="12.5" style="stroke:#444444;stroke-width:0.5;" width="231.4414" x="21" y="115.1113"/><text fill="#111111" font-family="sans-serif" font-size="12" lengthAdjust="spacing" textLength="208.1133" x="31" y="136.3672">Request EOD closure, branch hygiene,</text><text fill="#111111" font-family="sans-serif" font-size="12" lengthAdjust="spacing" textLength="211.4414" x="31" y="150.166">documentation, diagrams, and workflow</text><text fill="#111111" font-family="sans-serif" font-size="12" lengthAdjust="spacing" textLength="72.7031" x="31" y="163.9648">result capture</text><rect fill="#F7F7F7" height="33.7988" rx="12.5" ry="12.5" style="stroke:#444444;stroke-width:0.5;" width="165.4004" x="54.0205" y="1505.668"/><text fill="#111111" font-family="sans-serif" font-size="12" lengthAdjust="spacing" textLength="145.4004" x="64.0205" y="1526.9238">Receive EOD and PR state</text><ellipse cx="136.7207" cy="1570.4668" fill="none" rx="11" ry="11" style="stroke:#222222;stroke-width:1;"/><ellipse cx="136.7207" cy="1570.4668" fill="#222222" rx="6" ry="6" style="stroke:#222222;stroke-width:1;"/><line style="stroke:#000000;stroke-width:1.5;" x1="15" x2="15" y1="49.4131" y2="1581.4668"/><rect fill="#F7F7F7" height="47.5977" rx="12.5" ry="12.5" style="stroke:#444444;stroke-width:0.5;" width="228.7695" x="279.7764" y="196.5078"/><text fill="#111111" font-family="sans-serif" font-size="12" lengthAdjust="spacing" textLength="162.7617" x="289.7764" y="217.7637">Inventory repo state, PR #144,</text><text fill="#111111" font-family="sans-serif" font-size="12" lengthAdjust="spacing" textLength="208.7695" x="289.7764" y="231.5625">FCP outbox, relay notes, live host state</text><rect fill="#F7F7F7" height="61.3965" rx="12.5" ry="12.5" style="stroke:#444444;stroke-width:0.5;" width="216.7695" x="285.7764" y="264.1055"/><text fill="#111111" font-family="sans-serif" font-size="12" lengthAdjust="spacing" textLength="156.0586" x="295.7764" y="285.3613">Preserve source-of-truth rule:</text><text fill="#111111" font-family="sans-serif" font-size="12" lengthAdjust="spacing" textLength="196.7695" x="295.7764" y="299.1602">NetBox and repo docs must describe</text><text fill="#111111" font-family="sans-serif" font-size="12" lengthAdjust="spacing" textLength="158.0918" x="295.7764" y="312.959">host actions before promotion</text><rect fill="#F7F7F7" height="33.7988" rx="12.5" ry="12.5" style="stroke:#444444;stroke-width:0.5;" width="216.793" x="285.7646" y="588.2949"/><text fill="#111111" font-family="sans-serif" font-size="12" lengthAdjust="spacing" textLength="196.793" x="295.7646" y="609.5508">Install iperf3 locally and on endpoints</text><rect fill="#F7F7F7" height="47.5977" rx="12.5" ry="12.5" style="stroke:#444444;stroke-width:0.5;" width="244.1211" x="272.1006" y="642.0938"/><text fill="#111111" font-family="sans-serif" font-size="12" lengthAdjust="spacing" textLength="224.1211" x="282.1006" y="663.3496">Observe canary Portage failure caused by</text><text fill="#111111" font-family="sans-serif" font-size="12" lengthAdjust="spacing" textLength="207.4336" x="282.1006" y="677.1484">distcc wrapper recursion on localhost/2</text><rect fill="#F7F7F7" height="47.5977" rx="12.5" ry="12.5" style="stroke:#444444;stroke-width:0.5;" width="187.4141" x="300.4541" y="898.6855"/><text fill="#111111" font-family="sans-serif" font-size="12" lengthAdjust="spacing" textLength="151.3945" x="310.4541" y="919.9414">Assign temporary RFC 2544</text><text fill="#111111" font-family="sans-serif" font-size="12" lengthAdjust="spacing" textLength="167.4141" x="310.4541" y="933.7402">benchmark IP to primary bond0</text><rect fill="#F7F7F7" height="47.5977" rx="12.5" ry="12.5" style="stroke:#444444;stroke-width:0.5;" width="204.7344" x="291.7939" y="1087.6797"/><text fill="#111111" font-family="sans-serif" font-size="12" lengthAdjust="spacing" textLength="138.0469" x="301.7939" y="1108.9355">Run ping, TCP, TCP -P 4,</text><text fill="#111111" font-family="sans-serif" font-size="12" lengthAdjust="spacing" textLength="184.7344" x="301.7939" y="1122.7344">reverse TCP, and UDP iperf3 tests</text><rect fill="#F7F7F7" height="33.7988" rx="12.5" ry="12.5" style="stroke:#444444;stroke-width:0.5;" width="263.4395" x="262.4414" y="1344.2715"/><text fill="#111111" font-family="sans-serif" font-size="12" lengthAdjust="spacing" textLength="243.4395" x="272.4414" y="1365.5273">Remove temporary benchmark IP from bond0</text><rect fill="#F7F7F7" height="33.7988" rx="12.5" ry="12.5" style="stroke:#444444;stroke-width:0.5;" width="220.0625" x="284.1299" y="1398.0703"/><text fill="#111111" font-family="sans-serif" font-size="12" lengthAdjust="spacing" textLength="200.0625" x="294.1299" y="1419.3262">Record results in docs and wiki mirror</text><rect fill="#F7F7F7" height="33.7988" rx="12.5" ry="12.5" style="stroke:#444444;stroke-width:0.5;" width="210.7813" x="288.7705" y="1451.8691"/><text fill="#111111" font-family="sans-serif" font-size="12" lengthAdjust="spacing" textLength="190.7813" x="298.7705" y="1473.125">Commit, push, and update PR #144</text><line style="stroke:#000000;stroke-width:1.5;" x1="256.4414" x2="256.4414" y1="49.4131" y2="1581.4668"/><rect fill="#F7F7F7" height="33.7988" rx="12.5" ry="12.5" style="stroke:#444444;stroke-width:0.5;" width="210.1133" x="569.0215" y="345.502"/><text fill="#111111" font-family="sans-serif" font-size="12" lengthAdjust="spacing" textLength="190.1133" x="579.0215" y="366.7578">Report persistent Gentoo boot state</text><rect fill="#F7F7F7" height="47.5977" rx="12.5" ry="12.5" style="stroke:#444444;stroke-width:0.5;" width="276.3945" x="535.8809" y="399.3008"/><text fill="#111111" font-family="sans-serif" font-size="12" lengthAdjust="spacing" textLength="256.3945" x="545.8809" y="420.5566">Confirm ZFS root, SATADOM -&gt; ZFSBootMenu,</text><text fill="#111111" font-family="sans-serif" font-size="12" lengthAdjust="spacing" textLength="254.1328" x="545.8809" y="434.3555">OpenRC services, OVS bridge, and LACP bond</text><rect fill="#F7F7F7" height="47.5977" rx="12.5" ry="12.5" style="stroke:#444444;stroke-width:0.5;" width="196.0859" x="576.0352" y="709.6914"/><text fill="#111111" font-family="sans-serif" font-size="12" lengthAdjust="spacing" textLength="176.0859" x="586.0352" y="730.9473">Remove localhost/2 from durable</text><text fill="#111111" font-family="sans-serif" font-size="12" lengthAdjust="spacing" textLength="126.6914" x="586.0352" y="744.7461">DISTCC_HOSTS policy</text><rect fill="#F7F7F7" height="47.5977" rx="12.5" ry="12.5" style="stroke:#444444;stroke-width:0.5;" width="173.416" x="587.3701" y="777.2891"/><text fill="#111111" font-family="sans-serif" font-size="12" lengthAdjust="spacing" textLength="153.416" x="597.3701" y="798.5449">Apply selected Ansible roles:</text><text fill="#111111" font-family="sans-serif" font-size="12" lengthAdjust="spacing" textLength="117.7148" x="597.3701" y="812.3438">preflight + distcc_farm</text><rect fill="#F7F7F7" height="33.7988" rx="12.5" ry="12.5" style="stroke:#444444;stroke-width:0.5;" width="194.7207" x="576.7178" y="844.8867"/><text fill="#111111" font-family="sans-serif" font-size="12" lengthAdjust="spacing" textLength="174.7207" x="586.7178" y="866.1426">Install net-misc/iperf successfully</text><rect fill="#F7F7F7" height="47.5977" rx="12.5" ry="12.5" style="stroke:#444444;stroke-width:0.5;" width="198.1309" x="575.0127" y="1155.2773"/><text fill="#111111" font-family="sans-serif" font-size="12" lengthAdjust="spacing" textLength="171.3984" x="585.0127" y="1176.5332">Confirm ovs_workload0 remains</text><text fill="#111111" font-family="sans-serif" font-size="12" lengthAdjust="spacing" textLength="178.1309" x="585.0127" y="1190.332">LACP negotiated over eno1-eno4</text><line style="stroke:#000000;stroke-width:1.5;" x1="529.8809" x2="529.8809" y1="49.4131" y2="1581.4668"/><rect fill="#F7F7F7" height="33.7988" rx="12.5" ry="12.5" style="stroke:#444444;stroke-width:0.5;" width="187.4316" x="876.6328" y="466.8984"/><text fill="#111111" font-family="sans-serif" font-size="12" lengthAdjust="spacing" textLength="167.4316" x="886.6328" y="488.1543">Report Ubuntu VPP guest state</text><rect fill="#F7F7F7" height="47.5977" rx="12.5" ry="12.5" style="stroke:#444444;stroke-width:0.5;" width="225.4238" x="857.6367" y="520.6973"/><text fill="#111111" font-family="sans-serif" font-size="12" lengthAdjust="spacing" textLength="129.3867" x="867.6367" y="541.9531">Confirm vpp.service and</text><text fill="#111111" font-family="sans-serif" font-size="12" lengthAdjust="spacing" textLength="205.4238" x="867.6367" y="555.752">vpp-canary-afpacket.service are active</text><rect fill="#F7F7F7" height="47.5977" rx="12.5" ry="12.5" style="stroke:#444444;stroke-width:0.5;" width="171.3945" x="884.6514" y="966.2832"/><text fill="#111111" font-family="sans-serif" font-size="12" lengthAdjust="spacing" textLength="151.3945" x="894.6514" y="987.5391">Assign temporary RFC 2544</text><text fill="#111111" font-family="sans-serif" font-size="12" lengthAdjust="spacing" textLength="130.0781" x="894.6514" y="1001.3379">benchmark IP to enp0s5</text><rect fill="#F7F7F7" height="33.7988" rx="12.5" ry="12.5" style="stroke:#444444;stroke-width:0.5;" width="202.7656" x="868.9658" y="1033.8809"/><text fill="#111111" font-family="sans-serif" font-size="12" lengthAdjust="spacing" textLength="182.7656" x="878.9658" y="1055.1367">Run iperf3 server during validation</text><rect fill="#F7F7F7" height="33.7988" rx="12.5" ry="12.5" style="stroke:#444444;stroke-width:0.5;" width="296.1465" x="822.2754" y="1222.875"/><text fill="#111111" font-family="sans-serif" font-size="12" lengthAdjust="spacing" textLength="276.1465" x="832.2754" y="1244.1309">Expose VPP AF_PACKET counters on host-enp0s5</text><rect fill="#F7F7F7" height="47.5977" rx="12.5" ry="12.5" style="stroke:#444444;stroke-width:0.5;" width="199.4023" x="870.6475" y="1276.6738"/><text fill="#111111" font-family="sans-serif" font-size="12" lengthAdjust="spacing" textLength="179.4023" x="880.6475" y="1297.9297">Remove temporary benchmark IP</text><text fill="#111111" font-family="sans-serif" font-size="12" lengthAdjust="spacing" textLength="116.0625" x="880.6475" y="1311.7285">and stop iperf3 server</text><line style="stroke:#000000;stroke-width:1.5;" x1="816.2754" x2="816.2754" y1="49.4131" y2="1581.4668"/><line style="stroke:#000000;stroke-width:1.5;" x1="1122.4219" x2="1122.4219" y1="49.4131" y2="1581.4668"/><line style="stroke:#333333;stroke-width:1;" x1="136.7207" x2="136.7207" y1="95.1113" y2="115.1113"/><polygon fill="#333333" points="132.7207,105.1113,136.7207,115.1113,140.7207,105.1113,136.7207,109.1113" style="stroke:#333333;stroke-width:1;"/><line style="stroke:#333333;stroke-width:1;" x1="136.7207" x2="136.7207" y1="1539.4668" y2="1559.4668"/><polygon fill="#333333" points="132.7207,1549.4668,136.7207,1559.4668,140.7207,1549.4668,136.7207,1553.4668" style="stroke:#333333;stroke-width:1;"/><line style="stroke:#333333;stroke-width:1;" x1="394.1611" x2="394.1611" y1="244.1055" y2="264.1055"/><polygon fill="#333333" points="390.1611,254.1055,394.1611,264.1055,398.1611,254.1055,394.1611,258.1055" style="stroke:#333333;stroke-width:1;"/><line style="stroke:#333333;stroke-width:1;" x1="394.1611" x2="394.1611" y1="622.0938" y2="642.0938"/><polygon fill="#333333" points="390.1611,632.0938,394.1611,642.0938,398.1611,632.0938,394.1611,636.0938" style="stroke:#333333;stroke-width:1;"/><line style="stroke:#333333;stroke-width:1;" x1="394.1611" x2="394.1611" y1="1378.0703" y2="1398.0703"/><polygon fill="#333333" points="390.1611,1388.0703,394.1611,1398.0703,398.1611,1388.0703,394.1611,1392.0703" style="stroke:#333333;stroke-width:1;"/><line style="stroke:#333333;stroke-width:1;" x1="394.1611" x2="394.1611" y1="1431.8691" y2="1451.8691"/><polygon fill="#333333" points="390.1611,1441.8691,394.1611,1451.8691,398.1611,1441.8691,394.1611,1445.8691" style="stroke:#333333;stroke-width:1;"/><line style="stroke:#333333;stroke-width:1;" x1="674.0781" x2="674.0781" y1="379.3008" y2="399.3008"/><polygon fill="#333333" points="670.0781,389.3008,674.0781,399.3008,678.0781,389.3008,674.0781,393.3008" style="stroke:#333333;stroke-width:1;"/><line style="stroke:#333333;stroke-width:1;" x1="674.0781" x2="674.0781" y1="757.2891" y2="777.2891"/><polygon fill="#333333" points="670.0781,767.2891,674.0781,777.2891,678.0781,767.2891,674.0781,771.2891" style="stroke:#333333;stroke-width:1;"/><line style="stroke:#333333;stroke-width:1;" x1="674.0781" x2="674.0781" y1="824.8867" y2="844.8867"/><polygon fill="#333333" points="670.0781,834.8867,674.0781,844.8867,678.0781,834.8867,674.0781,838.8867" style="stroke:#333333;stroke-width:1;"/><line style="stroke:#333333;stroke-width:1;" x1="970.3486" x2="970.3486" y1="500.6973" y2="520.6973"/><polygon fill="#333333" points="966.3486,510.6973,970.3486,520.6973,974.3486,510.6973,970.3486,514.6973" style="stroke:#333333;stroke-width:1;"/><line style="stroke:#333333;stroke-width:1;" x1="970.3486" x2="970.3486" y1="1013.8809" y2="1033.8809"/><polygon fill="#333333" points="966.3486,1023.8809,970.3486,1033.8809,974.3486,1023.8809,970.3486,1027.8809" style="stroke:#333333;stroke-width:1;"/><line style="stroke:#333333;stroke-width:1;" x1="970.3486" x2="970.3486" y1="1256.6738" y2="1276.6738"/><polygon fill="#333333" points="966.3486,1266.6738,970.3486,1276.6738,974.3486,1266.6738,970.3486,1270.6738" style="stroke:#333333;stroke-width:1;"/><line style="stroke:#333333;stroke-width:1;" x1="136.7207" x2="136.7207" y1="176.5078" y2="181.5078"/><line style="stroke:#333333;stroke-width:1;" x1="136.7207" x2="394.1611" y1="181.5078" y2="181.5078"/><line style="stroke:#333333;stroke-width:1;" x1="394.1611" x2="394.1611" y1="181.5078" y2="196.5078"/><polygon fill="#333333" points="390.1611,186.5078,394.1611,196.5078,398.1611,186.5078,394.1611,190.5078" style="stroke:#333333;stroke-width:1;"/><line style="stroke:#333333;stroke-width:1;" x1="394.1611" x2="394.1611" y1="325.502" y2="330.502"/><line style="stroke:#333333;stroke-width:1;" x1="394.1611" x2="674.0781" y1="330.502" y2="330.502"/><line style="stroke:#333333;stroke-width:1;" x1="674.0781" x2="674.0781" y1="330.502" y2="345.502"/><polygon fill="#333333" points="670.0781,335.502,674.0781,345.502,678.0781,335.502,674.0781,339.502" style="stroke:#333333;stroke-width:1;"/><line style="stroke:#333333;stroke-width:1;" x1="674.0781" x2="674.0781" y1="446.8984" y2="451.8984"/><line style="stroke:#333333;stroke-width:1;" x1="674.0781" x2="970.3486" y1="451.8984" y2="451.8984"/><line style="stroke:#333333;stroke-width:1;" x1="970.3486" x2="970.3486" y1="451.8984" y2="466.8984"/><polygon fill="#333333" points="966.3486,456.8984,970.3486,466.8984,974.3486,456.8984,970.3486,460.8984" style="stroke:#333333;stroke-width:1;"/><line style="stroke:#333333;stroke-width:1;" x1="970.3486" x2="970.3486" y1="568.2949" y2="573.2949"/><line style="stroke:#333333;stroke-width:1;" x1="970.3486" x2="394.1611" y1="573.2949" y2="573.2949"/><line style="stroke:#333333;stroke-width:1;" x1="394.1611" x2="394.1611" y1="573.2949" y2="588.2949"/><polygon fill="#333333" points="390.1611,578.2949,394.1611,588.2949,398.1611,578.2949,394.1611,582.2949" style="stroke:#333333;stroke-width:1;"/><line style="stroke:#333333;stroke-width:1;" x1="394.1611" x2="394.1611" y1="689.6914" y2="694.6914"/><line style="stroke:#333333;stroke-width:1;" x1="394.1611" x2="674.0781" y1="694.6914" y2="694.6914"/><line style="stroke:#333333;stroke-width:1;" x1="674.0781" x2="674.0781" y1="694.6914" y2="709.6914"/><polygon fill="#333333" points="670.0781,699.6914,674.0781,709.6914,678.0781,699.6914,674.0781,703.6914" style="stroke:#333333;stroke-width:1;"/><line style="stroke:#333333;stroke-width:1;" x1="674.0781" x2="674.0781" y1="878.6855" y2="883.6855"/><line style="stroke:#333333;stroke-width:1;" x1="674.0781" x2="394.1611" y1="883.6855" y2="883.6855"/><line style="stroke:#333333;stroke-width:1;" x1="394.1611" x2="394.1611" y1="883.6855" y2="898.6855"/><polygon fill="#333333" points="390.1611,888.6855,394.1611,898.6855,398.1611,888.6855,394.1611,892.6855" style="stroke:#333333;stroke-width:1;"/><line style="stroke:#333333;stroke-width:1;" x1="394.1611" x2="394.1611" y1="946.2832" y2="951.2832"/><line style="stroke:#333333;stroke-width:1;" x1="394.1611" x2="970.3486" y1="951.2832" y2="951.2832"/><line style="stroke:#333333;stroke-width:1;" x1="970.3486" x2="970.3486" y1="951.2832" y2="966.2832"/><polygon fill="#333333" points="966.3486,956.2832,970.3486,966.2832,974.3486,956.2832,970.3486,960.2832" style="stroke:#333333;stroke-width:1;"/><line style="stroke:#333333;stroke-width:1;" x1="970.3486" x2="970.3486" y1="1067.6797" y2="1072.6797"/><line style="stroke:#333333;stroke-width:1;" x1="970.3486" x2="394.1611" y1="1072.6797" y2="1072.6797"/><line style="stroke:#333333;stroke-width:1;" x1="394.1611" x2="394.1611" y1="1072.6797" y2="1087.6797"/><polygon fill="#333333" points="390.1611,1077.6797,394.1611,1087.6797,398.1611,1077.6797,394.1611,1081.6797" style="stroke:#333333;stroke-width:1;"/><line style="stroke:#333333;stroke-width:1;" x1="394.1611" x2="394.1611" y1="1135.2773" y2="1140.2773"/><line style="stroke:#333333;stroke-width:1;" x1="394.1611" x2="674.0781" y1="1140.2773" y2="1140.2773"/><line style="stroke:#333333;stroke-width:1;" x1="674.0781" x2="674.0781" y1="1140.2773" y2="1155.2773"/><polygon fill="#333333" points="670.0781,1145.2773,674.0781,1155.2773,678.0781,1145.2773,674.0781,1149.2773" style="stroke:#333333;stroke-width:1;"/><line style="stroke:#333333;stroke-width:1;" x1="674.0781" x2="674.0781" y1="1202.875" y2="1207.875"/><line style="stroke:#333333;stroke-width:1;" x1="674.0781" x2="970.3486" y1="1207.875" y2="1207.875"/><line style="stroke:#333333;stroke-width:1;" x1="970.3486" x2="970.3486" y1="1207.875" y2="1222.875"/><polygon fill="#333333" points="966.3486,1212.875,970.3486,1222.875,974.3486,1212.875,970.3486,1216.875" style="stroke:#333333;stroke-width:1;"/><line style="stroke:#333333;stroke-width:1;" x1="970.3486" x2="970.3486" y1="1324.2715" y2="1329.2715"/><line style="stroke:#333333;stroke-width:1;" x1="970.3486" x2="394.1611" y1="1329.2715" y2="1329.2715"/><line style="stroke:#333333;stroke-width:1;" x1="394.1611" x2="394.1611" y1="1329.2715" y2="1344.2715"/><polygon fill="#333333" points="390.1611,1334.2715,394.1611,1344.2715,398.1611,1334.2715,394.1611,1338.2715" style="stroke:#333333;stroke-width:1;"/><line style="stroke:#333333;stroke-width:1;" x1="394.1611" x2="394.1611" y1="1485.668" y2="1490.668"/><line style="stroke:#333333;stroke-width:1;" x1="394.1611" x2="136.7207" y1="1490.668" y2="1490.668"/><line style="stroke:#333333;stroke-width:1;" x1="136.7207" x2="136.7207" y1="1490.668" y2="1505.668"/><polygon fill="#333333" points="132.7207,1495.668,136.7207,1505.668,140.7207,1495.668,136.7207,1499.668" style="stroke:#333333;stroke-width:1;"/><text fill="#000000" font-family="sans-serif" font-size="18" lengthAdjust="spacing" textLength="71.0332" x="100.2041" y="66.2969">Operator</text><text fill="#000000" font-family="sans-serif" font-size="18" lengthAdjust="spacing" textLength="170.0596" x="308.1313" y="66.2969">Atlas on primary M70</text><text fill="#000000" font-family="sans-serif" font-size="18" lengthAdjust="spacing" textLength="138.0762" x="604.04" y="66.2969">m70_canary host</text><text fill="#000000" font-family="sans-serif" font-size="18" lengthAdjust="spacing" textLength="125.0596" x="906.8188" y="66.2969">vpp_canary VM</text><?plantuml-src ZLJVR-9647xVlsAaFXxkSLnoaSYfaaEIDcfJBE3oq1UqjiUmOhsptHyGTEd_tbaR2jVceXe4ykpip3VVDpD11OtmU3M4pzbFtVz46kdsa5T1RLNOGmQZuUXJDhpCHf-4toXZfPCj-BMiQQVC2XgfFPwTbBBQh1n5Kqz8auCVckuvyv37s5y5mCr_tA_I9vsGgz4Th1VTmzPxCk5W-z0zug-pqBbpj3iSV-mU8Lwc5fqCv5w43z85CPxXdn5zWBlfBLIQV7GuWD99KwrXlLyfD3WGDLMnHHDaK6G6K2kvuWn-0DBKi2EtQJJjX4CVTO1Asi1HhZbR7hJqG0QiKssYabbz4UC7i-LWnEyEBG4Z2Poqc74P5nS3SJyfW68ewNd03bhkmL10pgRL5c5DZBQxSYt61UT4nrPFqLMOKPC55yCQNDGu5hzZkA7d3cMNYUlmq4OEKAEld2fHTE6I2cGybDYGGqPBBILBgg6z6YwhlX6IxqkYp98Bm4nwvGDN0Z-dSWXAeXEq2Pb6kHR-k9-3uuC1pFD5VZjz1EukDjwmxH5D70ZMnCmca0fHLQfp-ZHd2LIzmfxXtt9cf2HJ9pnRQuzudXvFQBwKqOG8JqK1gqxGV-FWUpyUKgIWWj-pFauc6ykTX-5qpYHqdVcsYfn2Qr1CHFCHD5Nyjky0io-Qsf8omJE4QTcBT81TC5wvGfuMfRbHs1mzrb3kHSryLXNidBGSb3Mh8dFCqVZRnKyAl1zzJvQMECcP7pGi9DJHoLAZk7sOBoQJvI_J-M8EbhIgzemjjvP1UzHO1GQH6w_OcHNJwCV2EcoqMgq3l8CUtBAHhhq-LMymPAtorVkE1l2nOWbz4vcADxZBlLSh0m5R5Y-PP_SJ65toL9V8ayUU6tWe8D0_zvBymzVq__-XqDYXlsJiisYEgdN2kCHHsbzRgLKjZvt_7UpfjcNl0ImcHVS3MG4yjmuvbCVUdDhWosrnpCFpcrhXDTsE3KfRlqoxH9EiXwnzAvNnekjzWokUHva4eWGN3Nt8-EVYDKBkdYqnYZG9-Vsoo2U_tYsWugqQ65qg9-NDJcJqRNFYxvmsaShmWUotVBt5pblX-eOyICck5QzrwDUc1sNw_TJjLBLHq2hUuAuRuRPLl41izEkUsMXP9ZokpEjl5dkAYsbJffMUdDdhi0nI9Ny3?></g></svg>
